<?xml version="1.0" encoding="UTF-8" standalone="no" ?>
<!DOCTYPE svg PUBLIC "-//W3C//DTD SVG 1.1//EN" "http://www.w3.org/Graphics/SVG/1.1/DTD/svg11.dtd">
<svg xmlns="http://www.w3.org/2000/svg" xmlns:xlink="http://www.w3.org/1999/xlink" version="1.1" width="1080" height="1080" viewBox="0 0 1080 1080" xml:space="preserve">
<desc>Created with Fabric.js 5.2.4</desc>
<defs>
</defs>
<g transform="matrix(1 0 0 1 540 540)" id="3f245914-9861-4618-b85b-0c3b57ed2875"  >
<rect style="stroke: none; stroke-width: 1; stroke-dasharray: none; stroke-linecap: butt; stroke-dashoffset: 0; stroke-linejoin: miter; stroke-miterlimit: 4; fill: rgb(255,255,255); fill-rule: nonzero; opacity: 1; visibility: hidden;" vector-effect="non-scaling-stroke"  x="-540" y="-540" rx="0" ry="0" width="1080" height="1080" />
</g>
<g transform="matrix(1 0 0 1 540 540)" id="84319c66-482a-454a-84da-884e8cdfc893"  >
</g>
<g transform="matrix(NaN NaN NaN NaN 0 0)"  >
<g style=""   >
</g>
</g>
<g transform="matrix(1 0 0 1 540.5 540.5)" style="" id="980394ae-fa7f-4961-9153-7f284707cc80"  >
		<text xml:space="preserve" font-family="Raleway" font-size="105" font-style="normal" font-weight="900" style="stroke: none; stroke-width: 1; stroke-dasharray: none; stroke-linecap: butt; stroke-dashoffset: 0; stroke-linejoin: miter; stroke-miterlimit: 4; fill: rgb(255,255,255); fill-rule: nonzero; opacity: 1; white-space: pre;" ><tspan x="-346.25" y="32.98" >EasyStayHub</tspan></text>
</g>
<g transform="matrix(1 0 0 1 540 441.99)" id="890f967f-1553-4f4b-918d-3e3739f46a80"  >
<path style="stroke: rgb(0,0,0); stroke-width: 0; stroke-dasharray: none; stroke-linecap: butt; stroke-dashoffset: 0; stroke-linejoin: miter; stroke-miterlimit: 4; fill: rgb(255,255,255); fill-rule: nonzero; opacity: 1;" vector-effect="non-scaling-stroke"  transform=" translate(-50, -50)" d="M 45.557 13.714 L 54.759 13.714 C 56.263 13.714 57.459 14.908000000000001 57.459 16.417 L 57.459 51.87 C 57.459 53.327999999999996 56.263000000000005 54.574 54.759 54.574 L 45.557 54.574 C 44.049 54.574 42.852000000000004 53.327999999999996 42.852000000000004 51.87 L 42.852000000000004 16.417 C 42.852 14.909 44.049 13.714 45.557 13.714 z M 61.93 22.135 C 74.356 26.917 83.142 38.979 83.142 53.120000000000005 C 83.142 71.417 68.328 86.285 50.026999999999994 86.285 C 31.676999999999992 86.285 16.858999999999995 71.417 16.858999999999995 53.12 C 16.858999999999995 38.875 25.802999999999997 26.761999999999997 38.38199999999999 22.031999999999996 L 38.38199999999999 32.949 C 31.415 36.952 26.737 44.49 26.737 53.12 C 26.737 65.961 37.135 76.41 50.027 76.41 C 62.868 76.41 73.263 65.961 73.263 53.12 C 73.263 44.593999999999994 68.742 37.16 61.93000000000001 33.105 L 61.93000000000001 22.135 z" stroke-linecap="round" />
</g>
</svg>